<?xml version="1.0" encoding="utf-8"?>
<!-- Generator: Adobe Illustrator 16.0.0, SVG Export Plug-In . SVG Version: 6.00 Build 0)  -->
<!DOCTYPE svg PUBLIC "-//W3C//DTD SVG 1.1//EN" "http://www.w3.org/Graphics/SVG/1.1/DTD/svg11.dtd">
<svg version="1.1" id="Logo_Correios" xmlns:svg="http://www.w3.org/2000/svg"
	 xmlns="http://www.w3.org/2000/svg" xmlns:xlink="http://www.w3.org/1999/xlink" x="0px" y="0px" width="309.676px"
	 height="230.147px" viewBox="2.148 103.472 309.676 230.147" enable-background="new 2.148 103.472 309.676 230.147"
	 xml:space="preserve">
<g id="icone">
	<path id="path448" d="M233.205,124.096c1.738-2.172,2.754-4.906,2.754-7.888c0-7.04-5.709-12.735-12.729-12.735h-86.253
		l56.063,72.682L233.205,124.096z"/>
	<path id="path450" d="M309.979,174.644l-46.649-60.535l-0.335-0.455c-4.786-6.077-12.18-10.008-20.47-10.182h-1.07
		c3.396,3.162,5.549,7.708,5.549,12.735l-0.093,1.678l-0.054,0.374l-0.187,1.324l-0.067,0.314l-0.375,1.403l-0.026,0.141
		c-0.642,2.039-1.618,3.938-2.982,5.642L143.114,256.906h98.875c8.677,0,16.352-4.111,21.246-10.51l46.65-60.548
		c1.23-1.552,1.939-3.517,1.939-5.663C311.824,178.106,311.129,176.181,309.979,174.644"/>
	<path id="path452" d="M80.753,312.982c-1.711,2.16-2.714,4.901-2.714,7.875c0,7.067,5.683,12.762,12.715,12.762h86.254
		l-56.076-72.696L80.753,312.982z"/>
	<path id="path454" d="M4.006,262.435l46.623,60.535l0.348,0.441c4.787,6.077,12.154,10.035,20.471,10.182l0.348,0.026h0.735
		c-3.409-3.182-5.562-7.708-5.562-12.756l0.08-1.658l0.041-0.395l0.214-1.316l0.066-0.301l0.361-1.424l0.04-0.12
		c0.628-2.04,1.618-3.958,2.981-5.663l100.12-129.822h-98.89c-8.664,0-16.352,4.131-21.245,10.509L4.113,251.243
		c-1.244,1.558-1.965,3.517-1.965,5.643C2.148,258.985,2.843,260.904,4.006,262.435"/>
</g>
</svg>
