<?xml version="1.0" encoding="utf-8"?>
<svg viewBox="0 -1.195 282.556 206.195" style="enable-background:new 0 0 1000 205" xmlns="http://www.w3.org/2000/svg">
  <defs>
    <style>.st6{fill:#06416a}</style>
  </defs>
  <linearGradient id="path11_1_" gradientUnits="userSpaceOnUse" x1="301.416" y1="1260.193" x2="215.77" y2="1193.28" gradientTransform="matrix(1.5428 0 0 -1.5428 -310.459 2009.132)">
    <stop offset="0" style="stop-color:#fd0"/>
    <stop offset="0.9" style="stop-color:#d49f00"/>
    <stop offset="1" style="stop-color:#fd0"/>
  </linearGradient>
  <linearGradient id="path18_1_" gradientUnits="userSpaceOnUse" x1="303.121" y1="1191.854" x2="240.822" y2="1191.854" gradientTransform="matrix(1.5428 0 0 -1.5428 -310.459 2009.132)">
    <stop offset="0" style="stop-color:#d49f00"/>
    <stop offset="1" style="stop-color:#ab5808"/>
  </linearGradient>
  <linearGradient id="path27_1_" gradientUnits="userSpaceOnUse" x1="282.614" y1="1211.683" x2="368.336" y2="1278.415" gradientTransform="matrix(1.5428 0 0 -1.5428 -310.459 2009.132)">
    <stop offset="0" style="stop-color:#00537e"/>
    <stop offset="0.9" style="stop-color:#18aae2"/>
    <stop offset="1" style="stop-color:#107bc0"/>
  </linearGradient>
  <linearGradient id="path34_1_" gradientUnits="userSpaceOnUse" x1="334.869" y1="1308.36" x2="298.457" y2="1279.912" gradientTransform="matrix(1.5428 0 0 -1.5428 -310.459 2009.132)">
    <stop offset="0" style="stop-color:#002542"/>
    <stop offset="1" style="stop-color:#004169"/>
  </linearGradient>
  <path id="path11" d="M71.2 204.8h-9c-7.2 0-13.7-3.4-18-8.8L1.6 141.3C.7 140 0 138.4 0 136.6s.7-3.4 1.6-4.7L44.5 77c4.3-5.4 10.6-8.8 18-8.8h94.8l-53.9 67.6L64 185.5l7.2 19.3z" style="fill-rule:evenodd;clip-rule:evenodd;fill:url(#path11_1_)" transform="matrix(0.9999999999999999, 0, 0, 0.9999999999999999, -2.842170943040401e-14, 0)"/>
  <path id="path18" d="m104 136.5-.4-.7L64 185.5c-1.6 2-2.9 4.7-2.9 9.2s4.3 10.1 12.8 10.1h83.3L104 136.5z" style="fill-rule:evenodd;clip-rule:evenodd;fill:url(#path18_1_)" transform="matrix(0.9999999999999999, 0, 0, 0.9999999999999999, -2.842170943040401e-14, 0)"/>
  <path id="path27" d="M216.3 19.3 209.1 0h9c7.2 0 13.7 3.4 18 8.8L279 63.6c.9 1.3 1.6 2.9 1.6 4.7 0 1.8-.7 3.4-1.6 4.7l-43.1 54.8c-4.3 5.4-10.6 8.8-18 8.8h-94.8L177 68.9l39.3-49.6z" style="fill-rule:evenodd;clip-rule:evenodd;fill:url(#path27_1_)" transform="matrix(0.9999999999999999, 0, 0, 0.9999999999999999, -2.842170943040401e-14, 0)"/>
  <path id="path34" d="m176.5 68.3.4.7 39.3-49.6c1.6-2 2.9-4.7 2.9-9.2 0-4.5-4.3-10.1-12.8-10.1H123l53.5 68.2z" style="fill-rule:evenodd;clip-rule:evenodd;fill:url(#path34_1_)" transform="matrix(0.9999999999999999, 0, 0, 0.9999999999999999, -2.842170943040401e-14, 0)"/>
  <path id="path36" d="M218.5 18.4c1.6-2 2.5-4.3 2.5-7C221 5.2 215.8 0 209.5 0h-2.9c6.3 0 11.2 5.2 11.2 11.5 0 2.7-.9 5.2-2.5 7l-38.9 49.9-53.2 68 95.3-118z" style="fill:#0bbbef" transform="matrix(0.9999999999999999, 0, 0, 0.9999999999999999, -2.842170943040401e-14, 0)"/>
  <path id="path38" d="M62 186.4c-1.6 2-2.5 4.3-2.5 7 0 6.3 5.2 11.5 11.5 11.5h2.9c-6.3 0-11.5-5.2-11.5-11.5 0-2.7.9-5.2 2.5-7l39.1-49.9 53.2-68L62 186.4z" style="fill:#ffd500" transform="matrix(0.9999999999999999, 0, 0, 0.9999999999999999, -2.842170943040401e-14, 0)"/>
</svg>